<svg width="24" height="24" viewBox="0 0 24 24" fill="none" xmlns="http://www.w3.org/2000/svg">
<path fill-rule="evenodd" clip-rule="evenodd" d="M17.7479 11.9809C17.7479 12.5311 17.3722 12.9771 16.9088 12.9771H6.83914C6.3757 12.9771 6 12.5311 6 11.9809V11.9809C6 11.4307 6.3757 10.9847 6.83914 10.9847H16.9088C17.3722 10.9847 17.7479 11.4307 17.7479 11.9809V11.9809Z" fill="black"/>
<path fill-rule="evenodd" clip-rule="evenodd" d="M17.5187 12.3871C17.2529 12.8378 16.7296 12.9473 16.35 12.6318L12.2257 9.20344C11.8461 8.88787 11.7538 8.26671 12.0196 7.81603V7.81603C12.2855 7.36535 12.8087 7.25582 13.1883 7.57139L17.3126 10.9997C17.6923 11.3153 17.7845 11.9365 17.5187 12.3871V12.3871Z" fill="black"/>
<path fill-rule="evenodd" clip-rule="evenodd" d="M17.5187 11.6129C17.7845 12.0636 17.6922 12.6847 17.3126 13.0003L13.1883 16.4286C12.8087 16.7442 12.2854 16.6347 12.0196 16.184V16.184C11.7538 15.7333 11.8461 15.1121 12.2257 14.7966L16.35 11.3682C16.7296 11.0527 17.2529 11.1622 17.5187 11.6129V11.6129Z" fill="black"/>
</svg>
