<svg width="24" height="24" viewBox="0 0 24 24" fill="none" xmlns="http://www.w3.org/2000/svg">
<g clip-path="url(#clip0_1_2)">
<path d="M14.9854 4.09568C15.1525 3.76147 15.3196 3.39384 15.587 2.82568C17.1578 3.36042 18.6951 3.86173 20.2325 4.39646C20.433 4.4633 20.6335 4.69725 20.7672 4.89778C23.374 8.74117 24.4435 13.019 24.1427 17.6311C24.1093 17.9319 23.9088 18.3664 23.6748 18.5001C22.0038 19.4024 20.2993 20.2714 18.5949 21.1403C18.1938 21.3408 17.893 21.3074 17.6591 20.8395C17.3917 20.3048 17.0241 19.8035 16.6899 19.2353C17.3917 18.9011 17.9933 18.6003 18.6283 18.2995C18.6283 18.2327 18.6283 18.1658 18.6617 18.0656C18.3609 18.0322 18.0601 17.9319 17.8262 18.0322C14.083 19.6029 10.3733 19.5695 6.63019 18.0322C6.39624 17.9319 6.06203 17.9987 5.79467 17.9653C5.76125 18.0656 5.76125 18.1324 5.72783 18.2327C6.36283 18.5335 6.9644 18.8677 7.5994 19.1685C7.56598 19.3022 7.56598 19.4024 7.53255 19.4693C6.66361 21.3408 6.39625 21.4745 4.52468 20.6056C3.25469 20.004 2.01811 19.2687 0.814964 18.5335C0.514177 18.3664 0.246811 17.8985 0.246811 17.5643C-0.0873971 12.9522 1.11576 8.70775 3.62232 4.83093C3.756 4.63041 3.98995 4.39646 4.22389 4.32962C5.69441 3.79489 7.19834 3.327 8.63544 2.8591C8.80254 3.02621 8.86939 3.02621 8.90281 3.09305C9.17018 4.06225 9.77175 4.22936 10.741 4.1291C12.0778 3.99541 13.448 4.09568 14.9854 4.09568ZM18.3609 13.0525C18.3609 11.749 17.3917 10.6796 16.1885 10.6796C15.0188 10.6796 14.0162 11.7825 14.0496 13.0859C14.0496 14.3893 15.0522 15.4922 16.222 15.4922C17.3583 15.4588 18.3609 14.3559 18.3609 13.0525ZM10.3399 13.0525C10.3399 11.7156 9.40412 10.6462 8.20097 10.6462C7.03124 10.6462 6.06204 11.7156 6.06204 13.019C6.06204 14.289 7.06466 15.4588 8.20097 15.4588C9.33728 15.4588 10.3399 14.3893 10.3399 13.0525Z" fill="white"/>
</g>
<defs>
<clipPath id="clip0_1_2">
<rect width="24" height="24" fill="white"/>
</clipPath>
</defs>
</svg>
