<svg width="24" height="24" viewBox="0 0 24 24" fill="none" xmlns="http://www.w3.org/2000/svg">
<g clip-path="url(#clip0_1_2)">
<path d="M9.69061 17.4393C9.49141 17.9373 9.35861 18.3689 9.15941 18.7341C9.0598 18.9333 8.8606 19.0993 8.62819 19.1989C7.43297 19.6637 6.43695 19.2985 5.64014 18.1365C5.07573 17.3397 4.41171 16.7421 3.34929 16.9081C3.31609 17.0409 3.28289 17.1073 3.31609 17.1073C4.21251 17.8377 4.81012 18.8337 5.37453 19.8629C5.87254 20.7925 6.86856 21.0581 7.89778 21.0249C8.26299 21.0249 8.59499 20.9917 9.0598 20.9585C9.0598 21.4233 9.0598 21.855 9.0598 22.2866C9.093 23.5814 8.7942 23.7806 7.59898 23.2826C4.71052 22.0874 2.51928 20.1285 1.22445 17.3065C-0.800787 12.7912 -0.335977 8.4419 2.78488 4.62382C5.90574 0.805748 10.089 -0.588679 14.9031 0.606544C19.7172 1.80177 22.6721 5.02223 23.7345 9.83632C24.9961 15.4804 21.6428 21.3569 16.1979 23.349C15.2019 23.7142 14.9695 23.515 14.9363 22.4858C14.9363 21.8218 14.9695 21.1577 14.9363 20.4937C14.8367 19.4977 14.6707 18.5017 14.5379 17.4061C14.7703 17.3729 15.2019 17.2733 15.6667 17.1737C19.1528 16.3104 20.8128 11.9612 18.854 8.9067C18.6216 8.5747 18.6216 8.07669 18.5552 7.64508C18.522 7.21347 18.5884 6.74866 18.522 6.31705C18.356 5.05543 18.0572 4.75662 16.9948 5.38744C15.4675 6.28385 13.9735 6.18425 12.3467 6.05145C11.417 5.95185 10.4874 6.18425 9.55781 6.25065C9.19261 6.25065 8.8274 6.18425 8.49539 6.05145C7.79818 5.78584 7.13417 5.45384 6.43695 5.22143C5.97215 5.05543 5.57374 5.18823 5.57374 5.75264C5.54054 6.64906 5.67334 7.57868 5.47413 8.4419C5.30813 9.27191 4.57772 10.0355 4.47811 10.8323C4.11291 14.2852 5.47413 16.6425 8.8938 17.2733C9.1594 17.3397 9.39181 17.3729 9.69061 17.4393Z" fill="white"/>
</g>
<defs>
<clipPath id="clip0_1_2">
<rect width="24" height="24" fill="white"/>
</clipPath>
</defs>
</svg>
