<svg width="17" height="16" viewBox="0 0 17 16" xmlns="http://www.w3.org/2000/svg">
<path fill-rule="evenodd" clip-rule="evenodd" d="M6.99992 3C4.97487 3 3.33325 4.64162 3.33325 6.66667C3.33325 8.69171 4.97487 10.3333 6.99992 10.3333C9.02496 10.3333 10.6666 8.69171 10.6666 6.66667C10.6666 4.64162 9.02496 3 6.99992 3ZM1.33325 6.66667C1.33325 3.53705 3.87031 1 6.99992 1C10.1295 1 12.6666 3.53705 12.6666 6.66667C12.6666 7.87028 12.2913 8.98626 11.6514 9.90397L15.0404 13.2929C15.4309 13.6834 15.4309 14.3166 15.0404 14.7071C14.6498 15.0976 14.0167 15.0976 13.6261 14.7071L10.2372 11.3182C9.31951 11.9581 8.20354 12.3333 6.99992 12.3333C3.87031 12.3333 1.33325 9.79628 1.33325 6.66667Z" />
</svg>
