<svg width="36" height="37" viewBox="0 0 36 37" fill="none" xmlns="http://www.w3.org/2000/svg">
<path fill-rule="evenodd" clip-rule="evenodd" d="M14.5152 6.74005C15.4021 3.08665 20.5979 3.08665 21.4848 6.74005C21.7382 7.78386 22.9341 8.27921 23.8514 7.72031C27.0619 5.76412 30.7359 9.43811 28.7797 12.6486C28.2208 13.5659 28.7161 14.7618 29.76 15.0152C33.4134 15.9021 33.4134 21.0979 29.76 21.9848C28.7161 22.2382 28.2208 23.4341 28.7797 24.3514C30.7359 27.5619 27.0619 31.2359 23.8514 29.2797C22.9341 28.7208 21.7382 29.2161 21.4848 30.26C20.5979 33.9134 15.4021 33.9134 14.5152 30.26C14.2618 29.2161 13.0659 28.7208 12.1486 29.2797C8.93812 31.2359 5.26412 27.5619 7.22031 24.3514C7.77921 23.4341 7.28386 22.2382 6.24005 21.9848C2.58665 21.0979 2.58665 15.9021 6.24005 15.0152C7.28386 14.7618 7.77921 13.5659 7.22031 12.6486C5.26412 9.43811 8.93811 5.76412 12.1486 7.72031C13.0659 8.27921 14.2618 7.78386 14.5152 6.74005ZM19.5413 7.21188C19.149 5.59604 16.851 5.59604 16.4587 7.21188C15.8858 9.57193 13.1819 10.6919 11.1079 9.42824C9.688 8.56305 8.06305 10.188 8.92824 11.6079C10.1919 13.6819 9.07193 16.3858 6.71188 16.9587C5.09604 17.351 5.09604 19.649 6.71188 20.0413C9.07193 20.6142 10.1919 23.3181 8.92824 25.3921C8.06305 26.812 9.688 28.437 11.1079 27.5718C13.1819 26.3081 15.8858 27.4281 16.4587 29.7881C16.851 31.404 19.149 31.404 19.5413 29.7881C20.1142 27.4281 22.8181 26.3081 24.8921 27.5718C26.312 28.437 27.937 26.812 27.0718 25.3921C25.8081 23.3181 26.9281 20.6142 29.2881 20.0413C30.904 19.649 30.904 17.351 29.2881 16.9587C26.9281 16.3858 25.8081 13.6819 27.0718 11.6079C27.937 10.188 26.312 8.56305 24.8921 9.42824C22.8181 10.6919 20.1142 9.57193 19.5413 7.21188ZM18 15C16.067 15 14.5 16.567 14.5 18.5C14.5 20.433 16.067 22 18 22C19.933 22 21.5 20.433 21.5 18.5C21.5 16.567 19.933 15 18 15ZM12.5 18.5C12.5 15.4624 14.9624 13 18 13C21.0376 13 23.5 15.4624 23.5 18.5C23.5 21.5376 21.0376 24 18 24C14.9624 24 12.5 21.5376 12.5 18.5Z" fill="white"/>
</svg>
