<svg width="24" height="24" viewBox="0 0 24 24" fill="none" xmlns="http://www.w3.org/2000/svg">
<g clip-path="url(#clip0_1_2)">
<path d="M7.33139 17.5064C5.62283 16.9704 4.41679 15.9988 3.78027 14.4243C3.61277 13.9888 3.51226 13.6203 4.18229 13.4528C2.94274 12.4477 2.07171 11.2417 1.97121 9.63362C1.90421 8.69559 1.97121 8.62859 2.94274 8.76259C1.90421 7.15454 1.6697 5.47948 2.37322 3.70392C2.80874 2.63189 3.00975 2.63189 3.78027 3.46942C6.05835 6.0155 8.90594 7.42255 12.3231 7.82456C12.3901 7.22154 12.4236 6.65202 12.5576 6.0825C13.3616 2.39738 17.7167 0.755825 20.6983 3.0674C21.1004 3.36891 21.4689 3.46942 21.9044 3.26841C22.5409 3.0004 23.1774 2.69889 23.8139 2.46438C23.9815 2.39738 24.216 2.39738 24.3165 2.49788C24.417 2.59839 24.4505 2.8664 24.417 3.0004C24.216 3.50292 23.9479 4.00543 23.6464 4.57495C23.9814 4.47445 24.2495 4.37395 24.5175 4.30694C24.685 4.27344 24.9865 4.30694 25.02 4.37395C25.087 4.54145 25.087 4.80946 24.9865 4.94347C24.484 5.57999 23.8809 6.116 23.3784 6.75253C23.1104 7.08754 22.8424 7.52305 22.8089 7.92507C22.5409 14.3573 18.3868 19.751 12.3901 21.2585C8.60444 22.1965 4.98631 21.694 1.6027 19.684C1.36819 19.55 1.23419 19.2484 1.06668 19.0474C1.33469 18.9469 1.6027 18.7794 1.87071 18.8129C3.74677 18.9134 5.52233 18.6119 7.33139 17.5064Z" fill="white"/>
</g>
<defs>
<clipPath id="clip0_1_2">
<rect width="24" height="24" fill="white"/>
</clipPath>
</defs>
</svg>
