<?xml version="1.0" standalone="no"?>
<!DOCTYPE svg PUBLIC "-//W3C//DTD SVG 20010904//EN"
 "http://www.w3.org/TR/2001/REC-SVG-20010904/DTD/svg10.dtd">
<svg version="1.0" xmlns="http://www.w3.org/2000/svg"
 width="512.000000pt" height="512.000000pt" viewBox="0 0 512.000000 512.000000"
 preserveAspectRatio="xMidYMid meet">
<metadata>
Created by potrace 1.14, written by Peter Selinger 2001-2017
</metadata>
<g transform="translate(0.000000,512.000000) scale(0.100000,-0.100000)"
fill="#000000" stroke="none">
<path d="M2313 5024 c-23 -9 -58 -32 -78 -53 -36 -37 -38 -38 -74 -25 -131 47
-279 -31 -313 -166 -10 -37 -12 -39 -27 -26 -48 44 -150 58 -224 32 -95 -35
-157 -123 -157 -226 0 -54 26 -130 49 -144 24 -15 8 -21 -57 -22 -77 0 -118
-18 -168 -71 -103 -109 -78 -288 50 -368 44 -27 58 -30 128 -30 l78 0 0 -31
c0 -16 12 -53 26 -82 l25 -51 -34 -31 c-34 -30 -64 -81 -72 -121 -2 -11 -7
-29 -10 -40 -8 -25 -13 -66 -14 -111 -1 -25 -6 -38 -15 -38 -7 0 -25 -9 -39
-20 l-25 -20 -10 43 c-37 144 -205 219 -340 151 -92 -46 -139 -133 -129 -239
6 -62 6 -63 -23 -75 -16 -7 -46 -29 -66 -50 -35 -36 -38 -37 -68 -25 -51 20
-130 19 -179 -3 -77 -34 -146 -126 -147 -194 0 -24 -4 -28 -27 -28 -39 -1
-104 -32 -141 -68 -52 -51 -67 -89 -67 -172 0 -65 4 -82 28 -123 34 -57 101
-103 163 -113 39 -6 44 -9 44 -33 1 -38 34 -106 70 -141 39 -38 77 -58 128
-66 37 -6 40 -9 46 -46 8 -51 28 -89 66 -128 36 -36 103 -69 143 -70 15 0 27
-3 28 -7 9 -135 27 -170 100 -207 l50 -24 -31 -7 c-34 -7 -85 -46 -101 -77 -6
-12 -13 -44 -16 -72 -9 -102 64 -160 209 -165 21 -1 28 -7 33 -31 13 -60 85
-111 173 -124 18 -2 49 -17 69 -32 89 -68 223 -71 295 -7 15 13 17 11 23 -19
9 -42 27 -75 62 -114 47 -52 89 -68 174 -69 67 0 81 3 124 30 58 35 104 104
112 164 5 35 9 41 30 41 66 0 151 59 187 132 l26 52 0 -131 0 -131 -80 -131
c-44 -73 -80 -134 -80 -136 0 -3 -20 -35 -44 -72 -42 -66 -48 -71 -202 -162
-180 -107 -201 -123 -220 -168 -68 -158 120 -275 288 -180 32 18 97 56 145 86
49 30 99 61 113 69 25 15 25 15 -2 -9 -14 -13 -65 -53 -111 -89 -124 -95 -150
-153 -108 -246 27 -60 82 -84 189 -84 44 0 93 5 108 10 14 6 73 56 130 113 57
56 108 103 112 105 4 1 53 -42 107 -97 55 -54 114 -106 132 -115 49 -24 192
-22 243 4 51 26 83 86 78 144 -8 73 -14 80 -193 221 -80 63 -77 64 17 5 222
-137 249 -150 321 -150 122 0 193 75 173 184 -11 58 -46 88 -230 197 -97 57
-176 107 -176 111 0 4 -51 93 -114 197 l-114 189 44 7 c23 3 58 17 77 30 l35
23 11 -42 c15 -61 67 -123 128 -153 140 -68 320 25 340 175 5 38 7 40 48 46
42 7 135 58 135 74 0 5 20 7 45 5 70 -7 137 20 188 77 39 43 67 103 67 141 0
9 20 19 52 27 94 22 158 87 180 181 13 60 -1 145 -32 184 l-19 24 45 6 c78 8
143 76 168 173 l11 45 25 -19 c38 -29 83 -41 147 -38 132 6 235 127 219 258
-4 28 -9 54 -11 58 -3 4 9 13 26 21 144 59 193 250 95 366 -27 32 -32 44 -28
75 6 51 -24 141 -58 173 -23 22 -27 32 -23 65 12 106 -62 216 -165 246 -114
33 -225 -8 -293 -108 l-25 -37 4 65 c4 54 0 72 -22 119 -30 60 -88 109 -148
126 -21 5 -38 12 -38 14 0 2 10 24 23 48 61 114 8 273 -107 322 -29 12 -29 14
-30 97 -1 76 -4 90 -31 134 -72 116 -245 151 -343 69 l-30 -25 5 44 c18 152
-116 282 -270 262 -61 -9 -93 -24 -136 -68 -48 -48 -71 -108 -71 -183 0 -35
-3 -66 -7 -68 -5 -3 -22 -2 -39 0 -28 4 -32 10 -38 45 -4 22 -13 52 -20 67
-20 38 -76 92 -110 106 -29 12 -29 14 -30 96 -1 72 -5 90 -28 130 -38 64 -122
119 -183 119 -19 0 -24 7 -29 44 -8 49 -44 110 -88 145 -62 50 -154 63 -235
35z m-709 -2303 c3 -4 39 -21 81 -37 65 -25 75 -32 76 -54 3 -99 17 -163 46
-207 13 -20 12 -22 -21 -33 -45 -14 -93 -69 -102 -115 -6 -33 -8 -35 -45 -35
-33 0 -78 18 -99 40 -3 3 -44 32 -92 64 -49 32 -88 62 -88 66 0 5 10 10 23 14
28 7 93 69 115 110 11 21 17 56 17 108 l0 77 35 4 c19 2 38 4 42 5 4 1 9 -2
12 -7z"/>
</g>
</svg>
