<svg width="0" height="0" class="hidden">
  <symbol xmlns="http://www.w3.org/2000/svg" viewBox="0 0 24 24" id="discord">
    <g clip-path="url(#clip0_1_2)">
      <path d="M14.9854 4.09568C15.1525 3.76147 15.3196 3.39384 15.587 2.82568C17.1578 3.36042 18.6951 3.86173 20.2325 4.39646C20.433 4.4633 20.6335 4.69725 20.7672 4.89778C23.374 8.74117 24.4435 13.019 24.1427 17.6311C24.1093 17.9319 23.9088 18.3664 23.6748 18.5001C22.0038 19.4024 20.2993 20.2714 18.5949 21.1403C18.1938 21.3408 17.893 21.3074 17.6591 20.8395C17.3917 20.3048 17.0241 19.8035 16.6899 19.2353C17.3917 18.9011 17.9933 18.6003 18.6283 18.2995C18.6283 18.2327 18.6283 18.1658 18.6617 18.0656C18.3609 18.0322 18.0601 17.9319 17.8262 18.0322C14.083 19.6029 10.3733 19.5695 6.63019 18.0322C6.39624 17.9319 6.06203 17.9987 5.79467 17.9653C5.76125 18.0656 5.76125 18.1324 5.72783 18.2327C6.36283 18.5335 6.9644 18.8677 7.5994 19.1685C7.56598 19.3022 7.56598 19.4024 7.53255 19.4693C6.66361 21.3408 6.39625 21.4745 4.52468 20.6056C3.25469 20.004 2.01811 19.2687 0.814964 18.5335C0.514177 18.3664 0.246811 17.8985 0.246811 17.5643C-0.0873971 12.9522 1.11576 8.70775 3.62232 4.83093C3.756 4.63041 3.98995 4.39646 4.22389 4.32962C5.69441 3.79489 7.19834 3.327 8.63544 2.8591C8.80254 3.02621 8.86939 3.02621 8.90281 3.09305C9.17018 4.06225 9.77175 4.22936 10.741 4.1291C12.0778 3.99541 13.448 4.09568 14.9854 4.09568ZM18.3609 13.0525C18.3609 11.749 17.3917 10.6796 16.1885 10.6796C15.0188 10.6796 14.0162 11.7825 14.0496 13.0859C14.0496 14.3893 15.0522 15.4922 16.222 15.4922C17.3583 15.4588 18.3609 14.3559 18.3609 13.0525ZM10.3399 13.0525C10.3399 11.7156 9.40412 10.6462 8.20097 10.6462C7.03124 10.6462 6.06204 11.7156 6.06204 13.019C6.06204 14.289 7.06466 15.4588 8.20097 15.4588C9.33728 15.4588 10.3399 14.3893 10.3399 13.0525Z"></path>
    </g>
    <defs>
      <clipPath id="clip0_1_2">
        <rect width="24" height="24"></rect>
      </clipPath>
    </defs>
  </symbol>
  <symbol xmlns="http://www.w3.org/2000/svg" viewBox="0 0 24 24" id="github">
    <g clip-path="url(#clip0_1_2)">
      <path d="M9.69061 17.4393C9.49141 17.9373 9.35861 18.3689 9.15941 18.7341C9.0598 18.9333 8.8606 19.0993 8.62819 19.1989C7.43297 19.6637 6.43695 19.2985 5.64014 18.1365C5.07573 17.3397 4.41171 16.7421 3.34929 16.9081C3.31609 17.0409 3.28289 17.1073 3.31609 17.1073C4.21251 17.8377 4.81012 18.8337 5.37453 19.8629C5.87254 20.7925 6.86856 21.0581 7.89778 21.0249C8.26299 21.0249 8.59499 20.9917 9.0598 20.9585C9.0598 21.4233 9.0598 21.855 9.0598 22.2866C9.093 23.5814 8.7942 23.7806 7.59898 23.2826C4.71052 22.0874 2.51928 20.1285 1.22445 17.3065C-0.800787 12.7912 -0.335977 8.4419 2.78488 4.62382C5.90574 0.805748 10.089 -0.588679 14.9031 0.606544C19.7172 1.80177 22.6721 5.02223 23.7345 9.83632C24.9961 15.4804 21.6428 21.3569 16.1979 23.349C15.2019 23.7142 14.9695 23.515 14.9363 22.4858C14.9363 21.8218 14.9695 21.1577 14.9363 20.4937C14.8367 19.4977 14.6707 18.5017 14.5379 17.4061C14.7703 17.3729 15.2019 17.2733 15.6667 17.1737C19.1528 16.3104 20.8128 11.9612 18.854 8.9067C18.6216 8.5747 18.6216 8.07669 18.5552 7.64508C18.522 7.21347 18.5884 6.74866 18.522 6.31705C18.356 5.05543 18.0572 4.75662 16.9948 5.38744C15.4675 6.28385 13.9735 6.18425 12.3467 6.05145C11.417 5.95185 10.4874 6.18425 9.55781 6.25065C9.19261 6.25065 8.8274 6.18425 8.49539 6.05145C7.79818 5.78584 7.13417 5.45384 6.43695 5.22143C5.97215 5.05543 5.57374 5.18823 5.57374 5.75264C5.54054 6.64906 5.67334 7.57868 5.47413 8.4419C5.30813 9.27191 4.57772 10.0355 4.47811 10.8323C4.11291 14.2852 5.47413 16.6425 8.8938 17.2733C9.1594 17.3397 9.39181 17.3729 9.69061 17.4393Z"></path>
    </g>
    <defs>
      <clipPath id="clip0_1_2">
        <rect width="24" height="24"></rect>
      </clipPath>
    </defs>
  </symbol>
  <symbol xmlns="http://www.w3.org/2000/svg" viewBox="0 0 24 24" id="twitter">
    <g clip-path="url(#clip0_1_2)">
      <path d="M7.33139 17.5064C5.62283 16.9704 4.41679 15.9988 3.78027 14.4243C3.61277 13.9888 3.51226 13.6203 4.18229 13.4528C2.94274 12.4477 2.07171 11.2417 1.97121 9.63362C1.90421 8.69559 1.97121 8.62859 2.94274 8.76259C1.90421 7.15454 1.6697 5.47948 2.37322 3.70392C2.80874 2.63189 3.00975 2.63189 3.78027 3.46942C6.05835 6.0155 8.90594 7.42255 12.3231 7.82456C12.3901 7.22154 12.4236 6.65202 12.5576 6.0825C13.3616 2.39738 17.7167 0.755825 20.6983 3.0674C21.1004 3.36891 21.4689 3.46942 21.9044 3.26841C22.5409 3.0004 23.1774 2.69889 23.8139 2.46438C23.9815 2.39738 24.216 2.39738 24.3165 2.49788C24.417 2.59839 24.4505 2.8664 24.417 3.0004C24.216 3.50292 23.9479 4.00543 23.6464 4.57495C23.9814 4.47445 24.2495 4.37395 24.5175 4.30694C24.685 4.27344 24.9865 4.30694 25.02 4.37395C25.087 4.54145 25.087 4.80946 24.9865 4.94347C24.484 5.57999 23.8809 6.116 23.3784 6.75253C23.1104 7.08754 22.8424 7.52305 22.8089 7.92507C22.5409 14.3573 18.3868 19.751 12.3901 21.2585C8.60444 22.1965 4.98631 21.694 1.6027 19.684C1.36819 19.55 1.23419 19.2484 1.06668 19.0474C1.33469 18.9469 1.6027 18.7794 1.87071 18.8129C3.74677 18.9134 5.52233 18.6119 7.33139 17.5064Z"></path>
    </g>
    <defs>
      <clipPath id="clip0_1_2">
        <rect width="24" height="24"></rect>
      </clipPath>
    </defs>
  </symbol>
  <symbol xmlns="http://www.w3.org/2000/svg" viewBox="0 0 24 24" id="arrow">
  <path fill-rule="evenodd" clip-rule="evenodd" d="M17.7479 11.9809C17.7479 12.5311 17.3722 12.9771 16.9088 12.9771H6.83914C6.3757 12.9771 6 12.5311 6 11.9809V11.9809C6 11.4307 6.3757 10.9847 6.83914 10.9847H16.9088C17.3722 10.9847 17.7479 11.4307 17.7479 11.9809V11.9809Z"></path>
  <path fill-rule="evenodd" clip-rule="evenodd" d="M17.5187 12.3871C17.2529 12.8378 16.7296 12.9473 16.35 12.6318L12.2257 9.20344C11.8461 8.88787 11.7538 8.26671 12.0196 7.81603V7.81603C12.2855 7.36535 12.8087 7.25582 13.1883 7.57139L17.3126 10.9997C17.6923 11.3153 17.7845 11.9365 17.5187 12.3871V12.3871Z"></path>
  <path fill-rule="evenodd" clip-rule="evenodd" d="M17.5187 11.6129C17.7845 12.0636 17.6922 12.6847 17.3126 13.0003L13.1883 16.4286C12.8087 16.7442 12.2854 16.6347 12.0196 16.184V16.184C11.7538 15.7333 11.8461 15.1121 12.2257 14.7966L16.35 11.3682C16.7296 11.0527 17.2529 11.1622 17.5187 11.6129V11.6129Z"></path>
</symbol>
<symbol xmlns="http://www.w3.org/2000/svg" viewBox="0 0 36 37" id="setting">
    <path fill-rule="evenodd" clip-rule="evenodd" d="M14.5152 6.74005C15.4021 3.08665 20.5979 3.08665 21.4848 6.74005C21.7382 7.78386 22.9341 8.27921 23.8514 7.72031C27.0619 5.76412 30.7359 9.43811 28.7797 12.6486C28.2208 13.5659 28.7161 14.7618 29.76 15.0152C33.4134 15.9021 33.4134 21.0979 29.76 21.9848C28.7161 22.2382 28.2208 23.4341 28.7797 24.3514C30.7359 27.5619 27.0619 31.2359 23.8514 29.2797C22.9341 28.7208 21.7382 29.2161 21.4848 30.26C20.5979 33.9134 15.4021 33.9134 14.5152 30.26C14.2618 29.2161 13.0659 28.7208 12.1486 29.2797C8.93812 31.2359 5.26412 27.5619 7.22031 24.3514C7.77921 23.4341 7.28386 22.2382 6.24005 21.9848C2.58665 21.0979 2.58665 15.9021 6.24005 15.0152C7.28386 14.7618 7.77921 13.5659 7.22031 12.6486C5.26412 9.43811 8.93811 5.76412 12.1486 7.72031C13.0659 8.27921 14.2618 7.78386 14.5152 6.74005ZM19.5413 7.21188C19.149 5.59604 16.851 5.59604 16.4587 7.21188C15.8858 9.57193 13.1819 10.6919 11.1079 9.42824C9.688 8.56305 8.06305 10.188 8.92824 11.6079C10.1919 13.6819 9.07193 16.3858 6.71188 16.9587C5.09604 17.351 5.09604 19.649 6.71188 20.0413C9.07193 20.6142 10.1919 23.3181 8.92824 25.3921C8.06305 26.812 9.688 28.437 11.1079 27.5718C13.1819 26.3081 15.8858 27.4281 16.4587 29.7881C16.851 31.404 19.149 31.404 19.5413 29.7881C20.1142 27.4281 22.8181 26.3081 24.8921 27.5718C26.312 28.437 27.937 26.812 27.0718 25.3921C25.8081 23.3181 26.9281 20.6142 29.2881 20.0413C30.904 19.649 30.904 17.351 29.2881 16.9587C26.9281 16.3858 25.8081 13.6819 27.0718 11.6079C27.937 10.188 26.312 8.56305 24.8921 9.42824C22.8181 10.6919 20.1142 9.57193 19.5413 7.21188ZM18 15C16.067 15 14.5 16.567 14.5 18.5C14.5 20.433 16.067 22 18 22C19.933 22 21.5 20.433 21.5 18.5C21.5 16.567 19.933 15 18 15ZM12.5 18.5C12.5 15.4624 14.9624 13 18 13C21.0376 13 23.5 15.4624 23.5 18.5C23.5 21.5376 21.0376 24 18 24C14.9624 24 12.5 21.5376 12.5 18.5Z"></path>
  </symbol>
  <symbol xmlns="http://www.w3.org/2000/svg" viewBox="0 0 16 16" id="arrow-down">
    <path fill-rule="evenodd" clip-rule="evenodd" d="M2.62627 5.29289C3.01679 4.90237 3.64996 4.90237 4.04048 5.29289L8.00004 9.25245L11.9596 5.29289C12.3501 4.90237 12.9833 4.90237 13.3738 5.29289C13.7643 5.68342 13.7643 6.31658 13.3738 6.70711L8.70715 11.3738C8.31662 11.7643 7.68346 11.7643 7.29293 11.3738L2.62627 6.70711C2.23574 6.31658 2.23574 5.68342 2.62627 5.29289Z"></path>
  </symbol>
  <symbol xmlns="http://www.w3.org/2000/svg" viewBox="0 0 17 16" id="search">
    <path fill-rule="evenodd" clip-rule="evenodd" d="M6.99992 3C4.97487 3 3.33325 4.64162 3.33325 6.66667C3.33325 8.69171 4.97487 10.3333 6.99992 10.3333C9.02496 10.3333 10.6666 8.69171 10.6666 6.66667C10.6666 4.64162 9.02496 3 6.99992 3ZM1.33325 6.66667C1.33325 3.53705 3.87031 1 6.99992 1C10.1295 1 12.6666 3.53705 12.6666 6.66667C12.6666 7.87028 12.2913 8.98626 11.6514 9.90397L15.0404 13.2929C15.4309 13.6834 15.4309 14.3166 15.0404 14.7071C14.6498 15.0976 14.0167 15.0976 13.6261 14.7071L10.2372 11.3182C9.31951 11.9581 8.20354 12.3333 6.99992 12.3333C3.87031 12.3333 1.33325 9.79628 1.33325 6.66667Z"></path>
  </symbol>
  <symbol xmlns="http://www.w3.org/2000/svg" viewBox="0 0 20 20" id="arrow-right">
    <path fill-rule="evenodd" clip-rule="evenodd" d="M10.2929 3.29289C10.6834 2.90237 11.3166 2.90237 11.7071 3.29289L17.7071 9.29289C18.0976 9.68342 18.0976 10.3166 17.7071 10.7071L11.7071 16.7071C11.3166 17.0976 10.6834 17.0976 10.2929 16.7071C9.90237 16.3166 9.90237 15.6834 10.2929 15.2929L14.5858 11L3 11C2.44772 11 2 10.5523 2 10C2 9.44772 2.44772 9 3 9H14.5858L10.2929 4.70711C9.90237 4.31658 9.90237 3.68342 10.2929 3.29289Z"></path>
  </symbol>
</svg>